# xmcd
#
# Track frame offsets: 
#        150
#        12262
#        22353
#        35358
#        47453
#        60693
#        70973
#        81645
#        93881
#        106260
#        121969
#
# Disc length: 1932 seconds
#
# Revision: 0
# Processed by: cddbd v1.4PL0 Copyright (c) Steve Scherf et al.
# Submitted via: ExactAudioCopy v0.95a3
#
DISCID=8f078a0b
DTITLE=Roy Clark and Buck Trent - Pair of Fives
DYEAR=1975
DGENRE=Bluegrass
TTITLE0=Shuckin' the Corn
TTITLE1=Foggy Mountain Breakdown
TTITLE2=Farewell Blues
TTITLE3=Dear Old Dixie
TTITLE4=Under the Double Eagle
TTITLE5=Banjoy
TTITLE6=Randy Lynn Rag
TTITLE7=Pair of Fives
TTITLE8=Nightcap
TTITLE9=Duelin' Banjos
TTITLE10=Malaguena
EXTD=
EXTT0=
EXTT1=
EXTT2=
EXTT3=
EXTT4=
EXTT5=
EXTT6=
EXTT7=
EXTT8=
EXTT9=
EXTT10=
PLAYORDER=
